<svg xmlns="http://www.w3.org/2000/svg" viewBox="0 0 512 512" style="height: 512px; width: 512px;"><defs><filter id="shadow-1" height="300%" width="300%" x="-100%" y="-100%"><feFlood flood-color="rgba(255, 0, 0, 1)" result="flood"></feFlood><feComposite in="flood" in2="SourceGraphic" operator="atop" result="composite"></feComposite><feGaussianBlur in="composite" stdDeviation="15" result="blur"></feGaussianBlur><feOffset dx="0" dy="0" result="offset"></feOffset><feComposite in="SourceGraphic" in2="offset" operator="over"></feComposite></filter><radialGradient id="gradient-0"><stop offset="0%" stop-color="#000" stop-opacity="1"></stop><stop offset="100%" stop-color="#ffffff" stop-opacity="1"></stop></radialGradient></defs><circle cx="256" cy="256" r="246" fill="url(#gradient-0)" stroke="#000000" stroke-opacity="1" stroke-width="10"></circle><g class="" transform="translate(0,0)" style="touch-action: none;"><path d="M20.625 16c-1.74.052-2.956.394-3.594 1.03-10.2 10.203 58.65 170.85 76.5 178.5 5.02 2.152 15.865-3.563 28.72-13.28h.03L196 256l-73.72 73.75c-12.863-9.726-23.728-15.433-28.75-13.28-17.85 7.65-86.7 168.297-76.5 178.5 10.203 10.2 170.85-58.65 178.5-76.5 2.153-5.022-3.554-15.887-13.28-28.75L256 316l73.75 73.75c-9.717 12.855-15.432 23.7-13.28 28.72 7.65 17.85 168.297 86.7 178.5 76.5 10.2-10.203-58.65-170.85-76.5-178.5-5.02-2.152-15.865 3.563-28.72 13.28L316 256l73.75-73.75c12.855 9.717 23.7 15.432 28.72 13.28 17.85-7.65 86.7-168.297 76.5-178.5-10.203-10.2-170.85 58.65-178.5 76.5-2.153 5.022 3.554 15.887 13.28 28.75L256 196l-73.75-73.72c.005-.006-.005-.023 0-.03 9.717-12.855 15.432-23.7 13.28-28.72C188.36 76.796 46.71 15.225 20.626 16z" fill="#ff0000" fill-opacity="1" transform="translate(76.8, 76.8) scale(0.7, 0.7) rotate(45, 256, 256)" filter="url(#shadow-1)"></path></g></svg>